<svg xmlns="http://www.w3.org/2000/svg">
  <defs>
    <symbol id='next-js' viewBox='0 0 180 180'>
      <mask id="mask0_408_139" style="mask-type:alpha" maskUnits="userSpaceOnUse" x="0" y="0" width="180" height="180">
        <circle cx="90" cy="90" r="90" fill="black" />
      </mask>
      <g mask="url(#mask0_408_139)">
        <circle cx="90" cy="90" r="87" fill="black" stroke="white" stroke-width="6" />
        <path
          d="M149.508 157.52L69.142 54H54V125.97H66.1136V69.3836L139.999 164.845C143.333 162.614 146.509 160.165 149.508 157.52Z"
          fill="url(#paint0_linear_408_139)" />
        <rect x="115" y="54" width="12" height="72" fill="url(#paint1_linear_408_139)" />
      </g>
      <defs>
        <linearGradient id="paint0_linear_408_139" x1="109" y1="116.5" x2="144.5" y2="160.5"
          gradientUnits="userSpaceOnUse">
          <stop stop-color="white" />
          <stop offset="1" stop-color="white" stop-opacity="0" />
        </linearGradient>
        <linearGradient id="paint1_linear_408_139" x1="121" y1="54" x2="120.799" y2="106.875"
          gradientUnits="userSpaceOnUse">
          <stop stop-color="white" />
          <stop offset="1" stop-color="white" stop-opacity="0" />
        </linearGradient>
      </defs>
    </symbol>
    <symbol id='astro' viewBox='0 0 256 366'>
      <path fill="#fff"
        d="M182.022 9.147c2.982 3.702 4.502 8.697 7.543 18.687L256 246.074a276.467 276.467 0 0 0-79.426-26.891L133.318 73.008a5.63 5.63 0 0 0-10.802.017L79.784 219.11A276.453 276.453 0 0 0 0 246.04L66.76 27.783c3.051-9.972 4.577-14.959 7.559-18.654a24.541 24.541 0 0 1 9.946-7.358C88.67 0 93.885 0 104.314 0h47.683c10.443 0 15.664 0 20.074 1.774a24.545 24.545 0 0 1 9.95 7.373Z" />
      <path fill="#FF5D01"
        d="M189.972 256.46c-10.952 9.364-32.812 15.751-57.992 15.751-30.904 0-56.807-9.621-63.68-22.56-2.458 7.415-3.009 15.903-3.009 21.324 0 0-1.619 26.623 16.898 45.14 0-9.615 7.795-17.41 17.41-17.41 16.48 0 16.46 14.378 16.446 26.043l-.001 1.041c0 17.705 10.82 32.883 26.21 39.28a35.685 35.685 0 0 1-3.588-15.647c0-16.886 9.913-23.173 21.435-30.48 9.167-5.814 19.353-12.274 26.372-25.232a47.588 47.588 0 0 0 5.742-22.735c0-5.06-.786-9.938-2.243-14.516Z" />
    </symbol>
    <symbol id='react' viewBox='0 0 569 512'>
      <g fill="none" fill-rule="evenodd">
        <g transform="translate(-227, -256)" fill="#58C4DC" fill-rule="nonzero">
          <g transform="translate(227, 256)">
            <path
              d="M285.5,201 C255.400481,201 231,225.400481 231,255.5 C231,285.599519 255.400481,310 285.5,310 C315.599519,310 340,285.599519 340,255.5 C340,225.400481 315.599519,201 285.5,201"
              id="Path"></path>
            <path
              d="M568.959856,255.99437 C568.959856,213.207656 529.337802,175.68144 466.251623,150.985214 C467.094645,145.423543 467.85738,139.922107 468.399323,134.521063 C474.621631,73.0415145 459.808523,28.6686204 426.709856,9.5541429 C389.677085,-11.8291748 337.36955,3.69129898 284.479928,46.0162134 C231.590306,3.69129898 179.282771,-11.8291748 142.25,9.5541429 C109.151333,28.6686204 94.3382249,73.0415145 100.560533,134.521063 C101.102476,139.922107 101.845139,145.443621 102.708233,151.02537 C97.4493791,153.033193 92.2908847,155.161486 87.3331099,157.39017 C31.0111824,182.708821 0,217.765415 0,255.99437 C0,298.781084 39.6220545,336.307301 102.708233,361.003527 C101.845139,366.565197 101.102476,372.066633 100.560533,377.467678 C94.3382249,438.947226 109.151333,483.32012 142.25,502.434597 C153.629683,508.887578 166.52439,512.186771 179.603923,511.991836 C210.956328,511.991836 247.567589,495.487529 284.479928,465.972527 C321.372196,495.487529 358.003528,511.991836 389.396077,511.991836 C402.475265,512.183856 415.36922,508.884856 426.75,502.434597 C459.848667,483.32012 474.661775,438.947226 468.439467,377.467678 C467.897524,372.066633 467.134789,366.565197 466.291767,361.003527 C529.377946,336.347457 569,298.761006 569,255.99437 M389.155214,27.1025182 C397.565154,26.899606 405.877839,28.9368502 413.241569,33.0055186 C436.223966,46.2772304 446.540955,82.2775015 441.522965,131.770345 C441.181741,135.143488 440.780302,138.556788 440.298575,141.990165 C414.066922,134.08804 387.205771,128.452154 360.010724,125.144528 C343.525021,103.224055 325.192524,82.7564475 305.214266,63.9661533 C336.586743,39.7116483 366.032313,27.1025182 389.135142,27.1025182 M378.356498,310.205598 C368.204912,327.830733 357.150626,344.919965 345.237759,361.405091 C325.045049,363.479997 304.758818,364.51205 284.459856,364.497299 C264.167589,364.51136 243.888075,363.479308 223.702025,361.405091 C211.820914,344.919381 200.80007,327.83006 190.683646,310.205598 C180.532593,292.629285 171.306974,274.534187 163.044553,255.99437 C171.306974,237.454554 180.532593,219.359455 190.683646,201.783142 C200.784121,184.229367 211.770999,167.201087 223.601665,150.764353 C243.824636,148.63809 264.145559,147.579168 284.479928,147.591877 C304.772146,147.579725 325.051559,148.611772 345.237759,150.68404 C357.109048,167.14607 368.136094,184.201112 378.27621,201.783142 C388.419418,219.363718 397.644825,237.458403 405.915303,255.99437 C397.644825,274.530337 388.419418,292.625022 378.27621,310.205598 M419.724813,290.127366 C426.09516,307.503536 431.324985,325.277083 435.380944,343.334682 C417.779633,348.823635 399.836793,353.149774 381.668372,356.285142 C388.573127,345.871232 395.263781,335.035679 401.740334,323.778483 C408.143291,312.655143 414.144807,301.431411 419.805101,290.207679 M246.363271,390.377981 C258.848032,391.140954 271.593728,391.582675 284.5,391.582675 C297.406272,391.582675 310.232256,391.140954 322.737089,390.377981 C310.880643,404.583418 298.10766,417.997563 284.5,430.534446 C270.921643,417.999548 258.18192,404.585125 246.363271,390.377981 Z M187.311556,356.244986 C169.137286,353.123646 151.187726,348.810918 133.578912,343.334682 C137.618549,325.305649 142.828222,307.559058 149.174827,290.207679 C154.754833,301.431411 160.736278,312.655143 167.239594,323.778483 C173.74291,334.901824 180.467017,345.864539 187.311556,356.285142 M149.174827,221.760984 C142.850954,204.473938 137.654787,186.794745 133.619056,168.834762 C151.18418,163.352378 169.085653,159.013101 187.211197,155.844146 C180.346585,166.224592 173.622478,176.986525 167.139234,188.210257 C160.65599,199.433989 154.734761,210.517173 149.074467,221.760984 M322.616657,121.590681 C310.131896,120.827708 297.3862,120.385987 284.379568,120.385987 C271.479987,120.385987 258.767744,120.787552 246.242839,121.590681 C258.061488,107.383537 270.801211,93.9691137 284.379568,81.4342157 C297.99241,93.9658277 310.765727,107.380324 322.616657,121.590681 Z M401.70019,188.210257 C395.196875,176.939676 388.472767,166.09743 381.527868,155.68352 C399.744224,158.819049 417.734224,163.151949 435.380944,168.654058 C431.331963,186.680673 426.122466,204.426664 419.785029,221.781062 C414.205023,210.55733 408.203506,199.333598 401.720262,188.230335 M127.517179,131.790423 C122.438973,82.3176579 132.816178,46.2973086 155.778503,33.0255968 C163.144699,28.9632474 171.455651,26.9264282 179.864858,27.1225964 C202.967687,27.1225964 232.413257,39.7317265 263.785734,63.9862316 C243.794133,82.7898734 225.448298,103.270812 208.949132,125.204763 C181.761691,128.528025 154.90355,134.14313 128.661281,141.990165 C128.199626,138.556788 127.778115,135.163566 127.456963,131.790423 M98.4529773,182.106474 C101.54406,180.767925 104.695358,179.429376 107.906872,178.090828 C114.220532,204.735668 122.781793,230.7969 133.498624,255.99437 C122.761529,281.241316 114.193296,307.357063 107.8868,334.058539 C56.7434387,313.076786 27.0971497,284.003505 27.0971497,255.99437 C27.0971497,229.450947 53.1907013,202.526037 98.4529773,182.106474 Z M155.778503,478.963143 C132.816178,465.691432 122.438973,429.671082 127.517179,380.198317 C127.838331,376.825174 128.259842,373.431953 128.721497,369.978497 C154.953686,377.878517 181.814655,383.514365 209.009348,386.824134 C225.500295,408.752719 243.832321,429.233234 263.805806,448.042665 C220.069,481.834331 180.105722,492.97775 155.838719,478.963143 M441.502893,380.198317 C446.520883,429.691161 436.203894,465.691432 413.221497,478.963143 C388.974566,493.017906 348.991216,481.834331 305.274481,448.042665 C325.241364,429.232737 343.566681,408.752215 360.050868,386.824134 C387.245915,383.516508 414.107066,377.880622 440.338719,369.978497 C440.820446,373.431953 441.221885,376.825174 441.563109,380.198317 M461.193488,334.018382 C454.869166,307.332523 446.294494,281.231049 435.561592,255.99437 C446.289797,230.744081 454.857778,204.629101 461.173416,177.930202 C512.216417,198.911955 541.942994,227.985236 541.942994,255.99437 C541.942994,284.003505 512.296705,313.076786 461.153344,334.058539"
              id="Shape"></path>
          </g>
        </g>
      </g>
    </symbol>
    <symbol id='typescript' viewBox='0 0 256 256'>
      <path
        d="M20 0h216c11.046 0 20 8.954 20 20v216c0 11.046-8.954 20-20 20H20c-11.046 0-20-8.954-20-20V20C0 8.954 8.954 0 20 0Z"
        fill="#3178C6" />
      <path
        d="M150.518 200.475v27.62c4.492 2.302 9.805 4.028 15.938 5.179 6.133 1.151 12.597 1.726 19.393 1.726 6.622 0 12.914-.633 18.874-1.899 5.96-1.266 11.187-3.352 15.678-6.257 4.492-2.906 8.048-6.704 10.669-11.394 2.62-4.689 3.93-10.486 3.93-17.391 0-5.006-.749-9.394-2.246-13.163a30.748 30.748 0 0 0-6.479-10.055c-2.821-2.935-6.205-5.567-10.149-7.898-3.945-2.33-8.394-4.531-13.347-6.602-3.628-1.497-6.881-2.949-9.761-4.359-2.879-1.41-5.327-2.848-7.342-4.316-2.016-1.467-3.571-3.021-4.665-4.661-1.094-1.64-1.641-3.495-1.641-5.567 0-1.899.489-3.61 1.468-5.135s2.362-2.834 4.147-3.927c1.785-1.094 3.973-1.942 6.565-2.547 2.591-.604 5.471-.906 8.638-.906 2.304 0 4.737.173 7.299.518 2.563.345 5.14.877 7.732 1.597a53.669 53.669 0 0 1 7.558 2.719 41.7 41.7 0 0 1 6.781 3.797v-25.807c-4.204-1.611-8.797-2.805-13.778-3.582-4.981-.777-10.697-1.165-17.147-1.165-6.565 0-12.784.705-18.658 2.115-5.874 1.409-11.043 3.61-15.506 6.602-4.463 2.993-7.99 6.805-10.582 11.437-2.591 4.632-3.887 10.17-3.887 16.615 0 8.228 2.375 15.248 7.127 21.06 4.751 5.811 11.963 10.731 21.638 14.759a291.458 291.458 0 0 1 10.625 4.575c3.283 1.496 6.119 3.049 8.509 4.66 2.39 1.611 4.276 3.366 5.658 5.265 1.382 1.899 2.073 4.057 2.073 6.474a9.901 9.901 0 0 1-1.296 4.963c-.863 1.524-2.174 2.848-3.93 3.97-1.756 1.122-3.945 1.999-6.565 2.632-2.62.633-5.687.95-9.2.95-5.989 0-11.92-1.05-17.794-3.151-5.875-2.1-11.317-5.25-16.327-9.451Zm-46.036-68.733H140V109H41v22.742h35.345V233h28.137V131.742Z"
        fill="#FFF" />
    </symbol>
    <symbol id='node-js' viewBox='0 0 256 292'>
      <defs>
        <linearGradient id="c" x1="68.188%" x2="27.823%" y1="17.487%" y2="89.755%">
          <stop offset="0%" stop-color="#41873F" />
          <stop offset="32.88%" stop-color="#418B3D" />
          <stop offset="63.52%" stop-color="#419637" />
          <stop offset="93.19%" stop-color="#3FA92D" />
          <stop offset="100%" stop-color="#3FAE2A" />
        </linearGradient>
        <linearGradient id="d" x1="43.277%" x2="159.245%" y1="55.169%" y2="-18.306%">
          <stop offset="13.76%" stop-color="#41873F" />
          <stop offset="40.32%" stop-color="#54A044" />
          <stop offset="71.36%" stop-color="#66B848" />
          <stop offset="90.81%" stop-color="#6CC04A" />
        </linearGradient>
        <linearGradient id="e" x1="-4.389%" x2="101.499%" y1="49.997%" y2="49.997%">
          <stop offset="9.192%" stop-color="#6CC04A" />
          <stop offset="28.64%" stop-color="#66B848" />
          <stop offset="59.68%" stop-color="#54A044" />
          <stop offset="86.24%" stop-color="#41873F" />
        </linearGradient>
        <path id="shape"
          d="M134.923 1.832c-4.344-2.443-9.502-2.443-13.846 0L6.787 67.801C2.443 70.244 0 74.859 0 79.745v132.208c0 4.887 2.715 9.502 6.787 11.945l114.29 65.968c4.344 2.444 9.502 2.444 13.846 0l114.29-65.968c4.344-2.443 6.787-7.058 6.787-11.945V79.745c0-4.886-2.715-9.501-6.787-11.944L134.923 1.832Z" />
        <mask id="mask1" maskUnits="userSpaceOnUse" maskContentUnits="userSpaceOnUse">
          <use href="#shape" />
        </mask>
      </defs>
      <path fill="url(#c)"
        d="M134.923 1.832c-4.344-2.443-9.502-2.443-13.846 0L6.787 67.801C2.443 70.244 0 74.859 0 79.745v132.208c0 4.887 2.715 9.502 6.787 11.945l114.29 65.968c4.344 2.444 9.502 2.444 13.846 0l114.29-65.968c4.344-2.443 6.787-7.058 6.787-11.945V79.745c0-4.886-2.715-9.501-6.787-11.944L134.923 1.832Z" />
      <path fill="url(#d)"
        d="M249.485 67.8 L134.65 1.833c-1.086-.542-2.443-1.085-3.529-1.357L2.443 220.912c1.086 1.357 2.444 2.443 3.8 3.258l114.834 65.968c3.258 1.9 7.059 2.443 10.588 1.357L252.47 70.515c-.815-1.086-1.9-1.9-2.986-2.714Z"
        mask="url(#mask1)" />
      <path fill="url(#e)"
        d="M249.756 223.898c3.258-1.9 5.701-5.158 6.787-8.687L130.579.204c-3.258-.543-6.787-.272-9.773 1.628L6.786 67.53l122.979 224.238c1.628-.272 3.529-.815 5.158-1.63l114.833-66.239Z"
        mask="url(#mask1)" />
    </symbol>
    <symbol id='nestjs' viewBox='0 0 264.6 255.6'>
      <path
        d="M153.3 4.2c-1.8 0-3.5.4-5 1 3.3 2.1 5.1 5 6 8.3 0 .5.2.8.3 1.3l.1 1.1c.3 5.7-1.5 6.4-2.7 9.8-1.9 4.3-1.4 9 .9 12.7.2.5.4 1 .8 1.4-2.5-16.3 11.1-18.8 13.7-23.9.2-4.4-3.5-7.4-6.4-9.5a14.3 14.3 0 0 0-7.7-2.2zM174 8c-.3 1.5 0 1.1-.1 1.9l-.2 1.7-.4 1.5-.5 1.6-.8 1.5-.5.7-.4.6c-.3.5-.6 1-1 1.3-.3.4-.6.9-1 1.2l-1.3 1c-1.4 1.1-3 1.9-4.3 2.9-.5.3-1 .5-1.3 1-.5.2-.9.6-1.3 1l-1.1 1.2-1 1.3-.9 1.3-.7 1.5-.5 1.5a21 21 0 0 0-.5 1.6l-.1.9-.1.7-.1 1.7v1.1l.3 1.6c0 .6.1 1 .3 1.6l.5 1.5.4 1-14.8-5.8-7.5-2-4-1a120 120 0 0 0-11.8-1.7h-.4A115.5 115.5 0 0 0 87 34.9l-3 .6c-2 .3-3.9.8-5.7 1.2l-3 .8-2.7 1.2-2.2 1-.3.1-1.8 1-.5.1-2 1-1.2.7-.6.3-1.7 1-1.6 1-1.3.9-.1.1-1.3 1H58l-1 .8-.4.3-1 .8c0 .2-.1.2-.2.3l-1.2 1v.2c-.5.3-.9.7-1.2 1.1l-.2.1-1 1c0 .2-.3.3-.4.5l-1 1.1-.4.3-1.4 1.6-.2.2a38.1 38.1 0 0 1-7 6 48.9 48.9 0 0 1-12.1 6c-2.7.5-5.5 1.6-7.9 1.8l-1.6.2-1.6.4-1.6.6-1.5.7-1.4.9c-.5.3-1 .7-1.3 1.1-.5.3-1 .8-1.3 1.2l-1.1 1.3-1 1.4-.9 1.5-.7 1.7-.6 1.7-.3 1.5v.2L6 86.2v2.1a6.9 6.9 0 0 0 .7 2.4l.7 1.2.8 1.2a17.1 17.1 0 0 0 2.4 2c1.5 1.4 1.9 1.9 3.9 2.9l1 .5h.2v.4a13.3 13.3 0 0 0 1 3.1l.5 1.2.1.3a28.3 28.3 0 0 0 1.8 2.8l1 1.2 1.3 1.1h.1a14.2 14.2 0 0 0 5.4 3l.3.1.8.2c-.2 3.5-.3 6.8.3 8 .5 1.2 3.4-2.7 6.2-7.2-.4 4.4-.6 9.7 0 11.2.7 1.6 4.6-3.4 8-9a74.7 74.7 0 0 1 92 65.8c-.8-7-9.4-10.8-13.4-9.9-2 4.8-5.2 11-10.5 14.8.4-4.3.2-8.7-.7-13-1.4 6-4.2 11.5-8 16.3a18 18 0 0 1-15.5-7l-.5-.8-.5-1.4-.4-1.3V176c0-.5.1-1 .3-1.4 0-.4.2-.9.4-1.3l.8-1.4c1-3 1-5.6-1-7l-1.1-.7-.9-.3-.5-.2-1.4-.3a5 5 0 0 0-1.3-.2l-1.4-.1h-1l-1.4.2-1.4.3-1.3.4-1.3.6-1.3.7c-15 9.8-6 32.8 4.2 39.5-3.8.7-7.8 1.5-8.9 2.3l-.1.2a60.9 60.9 0 0 0 19.2 7.4 61.5 61.5 0 0 0 72.6-51.3l.4 1.7c.2 1.2.5 2.4.6 3.7l.2 1.7v.3l.2 1.6.1 2.2v5.4l-.1.8v1.5c-.2.2-.2.4-.2.5 0 .6 0 1-.2 1.5v.6c0 .7-.2 1.2-.3 1.9v.1l-.4 1.8v.2c0 .6-.2 1.2-.4 1.8v.2l-.5 1.8v.2l-.5 1.8v.1l-.6 2-.7 1.8-.8 1.9-.7 1.9c-.4.5-.6 1.2-1 1.8l-.1.4s0 .2-.2.2a61.2 61.2 0 0 1-18.1 21.7l-1.6 1.1c0 .2-.3.2-.4.4l-1.4 1 .2.3 2.7-.4h.1a137.7 137.7 0 0 0 6.5-1.2l.9-.2 1.3-.3 1.2-.3c6.4-1.5 12.7-3.7 18.7-6.2-10.2 14-24 25.3-40.1 32.8a103.2 103.2 0 0 0 83.1-52.6c-2.7 15-8.6 29.1-17.4 41.5a101.7 101.7 0 0 0 44.5-69.2c2.2 10.2 2.8 20.7 1.8 31.1 46.7-65 4-132.5-14-150.3l-.1-.3v.1l-.1-.1-.2 2.3a87 87 0 0 1-.6 4.3l-1.1 4.3a53.7 53.7 0 0 1-3.5 8 44 44 0 0 1-9.9 12l-1.5 1.4a36 36 0 0 1-7.4 4.7l-4 1.8a45.5 45.5 0 0 1-8.6 2.3l-4.4.6a49.7 49.7 0 0 1-11.9-.8l-4.3-1.1a48 48 0 0 0 20.7-6.8l3.6-2.6 3.3-2.9 3-3.2c1-1.1 1.9-2.3 2.7-3.5.2-.1.3-.4.4-.6l1.9-3.1a44.5 44.5 0 0 0 3.5-8c.4-1.4.8-2.9 1-4.3.3-1.5.6-2.9.7-4.3l.3-4.4-.1-3.1-.6-4.3c-.2-1.5-.5-3-1-4.4-.4-1.3-.8-2.7-1.4-4.1-.5-1.4-1.1-2.7-1.8-4l-2.2-3.8a71.3 71.3 0 0 0-5.5-6.9 40.4 40.4 0 0 0-12-8.6C178 9.3 176 8.6 174 8z"
        fill="#e0234e" fill-rule="evenodd" />
    </symbol>
    <symbol id='python' viewBox='16 16 32 32'>
      <path fill="url(#a)"
        d="M31.885 16c-8.124 0-7.617 3.523-7.617 3.523l.01 3.65h7.752v1.095H21.197S16 23.678 16 31.876c0 8.196 4.537 7.906 4.537 7.906h2.708v-3.804s-.146-4.537 4.465-4.537h7.688s4.32.07 4.32-4.175v-7.019S40.374 16 31.885 16zm-4.275 2.454a1.394 1.394 0 1 1 0 2.79 1.393 1.393 0 0 1-1.395-1.395c0-.771.624-1.395 1.395-1.395z" />
      <path fill="url(#b)"
        d="M32.115 47.833c8.124 0 7.617-3.523 7.617-3.523l-.01-3.65H31.97v-1.095h10.832S48 40.155 48 31.958c0-8.197-4.537-7.906-4.537-7.906h-2.708v3.803s.146 4.537-4.465 4.537h-7.688s-4.32-.07-4.32 4.175v7.019s-.656 4.247 7.833 4.247zm4.275-2.454a1.393 1.393 0 0 1-1.395-1.395 1.394 1.394 0 1 1 1.395 1.395z" />
      <defs>
        <linearGradient id="a" x1="19.075" x2="34.898" y1="18.782" y2="34.658" gradientUnits="userSpaceOnUse">
          <stop stop-color="#387EB8" />
          <stop offset="1" stop-color="#366994" />
        </linearGradient>
        <linearGradient id="b" x1="28.809" x2="45.803" y1="28.882" y2="45.163" gradientUnits="userSpaceOnUse">
          <stop stop-color="#FFE052" />
          <stop offset="1" stop-color="#FFC331" />
        </linearGradient>
      </defs>
    </symbol>
    <symbol id='tailwindcss' viewBox='0 0 54 33'>
      <g clip-path="url(#a)">
        <path fill="#38bdf8" fill-rule="evenodd"
          d="M27 0c-7.2 0-11.7 3.6-13.5 10.8 2.7-3.6 5.85-4.95 9.45-4.05 2.054.513 3.522 2.004 5.147 3.653C30.744 13.09 33.808 16.2 40.5 16.2c7.2 0 11.7-3.6 13.5-10.8-2.7 3.6-5.85 4.95-9.45 4.05-2.054-.513-3.522-2.004-5.147-3.653C36.756 3.11 33.692 0 27 0zM13.5 16.2C6.3 16.2 1.8 19.8 0 27c2.7-3.6 5.85-4.95 9.45-4.05 2.054.514 3.522 2.004 5.147 3.653C17.244 29.29 20.308 32.4 27 32.4c7.2 0 11.7-3.6 13.5-10.8-2.7 3.6-5.85 4.95-9.45 4.05-2.054-.513-3.522-2.004-5.147-3.653C23.256 19.31 20.192 16.2 13.5 16.2z"
          clip-rule="evenodd" />
      </g>
      <defs>
        <clipPath id="a">
          <path fill="#fff" d="M0 0h54v32.4H0z" />
        </clipPath>
      </defs>
    </symbol>
    <symbol id='postgresql' viewBox='0 0 256 264'>
      <path
        d="M255 158c-2-5-6-8-11-9l-8 1-14 2c12-20 22-43 27-65 9-34 5-50-1-57a77 77 0 0 0-62-30c-14 0-27 3-33 5l-19-2c-12 0-24 3-33 8L78 5c-23-3-42 0-55 9C7 26-1 46 0 74a342 342 0 0 0 28 97c7 14 14 22 23 24 5 2 13 3 22-4l5 4 9 3c11 3 22 2 31-1a643 643 0 0 1 0 10 109 109 0 0 0 5 33c1 4 4 11 9 16 6 6 13 8 20 8l9-1c10-2 21-6 29-17s11-27 12-53v-2l1-2 1 1h1c10 0 22-2 30-6 5-2 24-12 20-26" />
      <path
        d="M238 161c-30 6-32-4-32-4 32-47 45-106 33-120-31-40-84-21-85-21l-20-2c-14 0-24 4-32 10 0 0-95-40-91 49 1 19 28 143 59 106l22-26c6 4 12 6 19 5h1v5c-8 9-6 10-22 14-16 3-7 9 0 11s25 4 36-12v2c3 2 5 16 5 29-1 12-1 21 2 27 2 7 5 22 26 18 17-4 27-14 28-30 1-12 3-10 3-20l1-5c2-16 1-21 12-19l2 1c8 0 19-2 25-5 13-6 21-16 8-13"
        fill="#336791" />
      <path
        d="M108 82h-6l-1 2 1 3c1 2 3 3 5 3h1c3 0 6-2 6-4 1-2-3-4-6-4M197 82c0-2-4-3-7-2-3 0-6 1-6 3 1 2 3 4 6 4h1l4-2 2-3"
        fill="#FFF" />
      <path
        d="M248 160c-1-3-5-5-11-3-18 3-24 1-27-1 14-21 26-47 32-71 3-11 5-22 5-30 0-10-2-17-5-21a70 70 0 0 0-57-27c-16 0-30 4-33 6-5-2-12-3-18-3-13 0-23 3-32 9-4-2-14-5-26-7-21-3-37-1-49 8C13 30 6 48 8 73c0 8 5 35 13 60 10 33 21 51 32 55l5 1c4 0 9-2 14-9l21-22c4 2 9 3 14 3v1l-2 3c-4 5-5 5-16 8-3 0-12 2-12 8 0 7 10 10 11 10l12 1c9 0 17-3 24-8-1 23 0 46 3 53 3 6 8 20 26 20l9-1c18-4 26-12 29-30l6-45 11 1c8 0 17-2 23-5 7-3 19-10 17-17Zm-44-83-1 10-2 12 1 14c1 9 3 19-2 28l-2-4-3-6c-7-12-22-39-14-50 2-3 8-6 23-4Zm-18-62c21 0 38 8 50 23 9 12-1 65-30 111l-1-1c7-13 6-25 5-36l-1-13 1-11a72 72 0 0 0 1-16c0-5-6-20-18-34-6-7-16-16-28-21l21-2ZM67 176c-6 7-10 6-12 5-8-3-19-21-27-51-8-25-13-50-13-57-1-23 4-39 16-47 20-14 52-6 64-2v1C74 46 74 82 74 85v3c1 7 2 18 0 31a38 38 0 0 0 12 34l-19 23Zm22-30c-6-7-9-16-8-26 2-14 1-26 1-32v-2c3-3 17-11 27-8 5 1 8 4 9 9 6 28 1 40-4 50l-2 5-1 2-3 10c-7 0-14-3-19-8Zm1 38-5-2 6-2c13-3 15-5 19-10l4-5c3-3 4-2 6-1 1 0 3 2 4 5l-1 4c-9 13-23 13-33 11Zm70 65c-16 3-22-5-26-15a293 293 0 0 1-3-67c-2-5-5-9-8-10-2-1-5-2-8-1l3-10 1-1 2-5c5-10 11-24 4-54-2-12-11-17-23-16a54 54 0 0 0-20 7c1-12 5-33 18-47 9-8 20-13 34-12 27 0 44 14 54 26 8 10 13 20 15 25-14-1-23 1-28 8-10 15 6 44 13 57l3 6 8 13 2 2c-4 2-11 4-11 18l-6 51c-3 16-8 21-24 25Zm68-78c-4 2-11 3-18 3-8 1-11 0-12-1-1-9 3-10 6-11h2l1 1c6 4 16 4 31 1h1l-11 7Z"
        fill="#FFF" />
    </symbol>
    <symbol id='git-github' viewBox='0 0 256 250' fill='#fff'>
      <path
        d="M128.001 0C57.317 0 0 57.307 0 128.001c0 56.554 36.676 104.535 87.535 121.46 6.397 1.185 8.746-2.777 8.746-6.158 0-3.052-.12-13.135-.174-23.83-35.61 7.742-43.124-15.103-43.124-15.103-5.823-14.795-14.213-18.73-14.213-18.73-11.613-7.944.876-7.78.876-7.78 12.853.902 19.621 13.19 19.621 13.19 11.417 19.568 29.945 13.911 37.249 10.64 1.149-8.272 4.466-13.92 8.127-17.116-28.431-3.236-58.318-14.212-58.318-63.258 0-13.975 5-25.394 13.188-34.358-1.329-3.224-5.71-16.242 1.24-33.874 0 0 10.749-3.44 35.21 13.121 10.21-2.836 21.16-4.258 32.038-4.307 10.878.049 21.837 1.47 32.066 4.307 24.431-16.56 35.165-13.12 35.165-13.12 6.967 17.63 2.584 30.65 1.255 33.873 8.207 8.964 13.173 20.383 13.173 34.358 0 49.163-29.944 59.988-58.447 63.157 4.591 3.972 8.682 11.762 8.682 23.704 0 17.126-.148 30.91-.148 35.126 0 3.407 2.304 7.398 8.792 6.14C219.37 232.5 256 184.537 256 128.002 256 57.307 198.691 0 128.001 0Zm-80.06 182.34c-.282.636-1.283.827-2.194.39-.929-.417-1.45-1.284-1.15-1.922.276-.655 1.279-.838 2.205-.399.93.418 1.46 1.293 1.139 1.931Zm6.296 5.618c-.61.566-1.804.303-2.614-.591-.837-.892-.994-2.086-.375-2.66.63-.566 1.787-.301 2.626.591.838.903 1 2.088.363 2.66Zm4.32 7.188c-.785.545-2.067.034-2.86-1.104-.784-1.138-.784-2.503.017-3.05.795-.547 2.058-.055 2.861 1.075.782 1.157.782 2.522-.019 3.08Zm7.304 8.325c-.701.774-2.196.566-3.29-.49-1.119-1.032-1.43-2.496-.726-3.27.71-.776 2.213-.558 3.315.49 1.11 1.03 1.45 2.505.701 3.27Zm9.442 2.81c-.31 1.003-1.75 1.459-3.199 1.033-1.448-.439-2.395-1.613-2.103-2.626.301-1.01 1.747-1.484 3.207-1.028 1.446.436 2.396 1.602 2.095 2.622Zm10.744 1.193c.036 1.055-1.193 1.93-2.715 1.95-1.53.034-2.769-.82-2.786-1.86 0-1.065 1.202-1.932 2.733-1.958 1.522-.03 2.768.818 2.768 1.868Zm10.555-.405c.182 1.03-.875 2.088-2.387 2.37-1.485.271-2.861-.365-3.05-1.386-.184-1.056.893-2.114 2.376-2.387 1.514-.263 2.868.356 3.061 1.403Z" />
    </symbol>
    <symbol id="linkedin" viewBox="0 0 256 256">
      <path
        d="M218.123 218.127h-37.931v-59.403c0-14.165-.253-32.4-19.728-32.4-19.756 0-22.779 15.434-22.779 31.369v60.43h-37.93V95.967h36.413v16.694h.51a39.907 39.907 0 0 1 35.928-19.733c38.445 0 45.533 25.288 45.533 58.186l-.016 67.013ZM56.955 79.27c-12.157.002-22.014-9.852-22.016-22.009-.002-12.157 9.851-22.014 22.008-22.016 12.157-.003 22.014 9.851 22.016 22.008A22.013 22.013 0 0 1 56.955 79.27m18.966 138.858H37.95V95.967h37.97v122.16ZM237.033.018H18.89C8.58-.098.125 8.161-.001 18.471v219.053c.122 10.315 8.576 18.582 18.89 18.474h218.144c10.336.128 18.823-8.139 18.966-18.474V18.454c-.147-10.33-8.635-18.588-18.966-18.453"
        fill="#0A66C2" />
    </symbol>
    <symbol id="instagram" viewBox="0 0 256 256">
      <path fill="#833AB4"
        d="M128 23.064c34.177 0 38.225.13 51.722.745 12.48.57 19.258 2.655 23.769 4.408 5.974 2.322 10.238 5.096 14.717 9.575 4.48 4.479 7.253 8.743 9.575 14.717 1.753 4.511 3.838 11.289 4.408 23.768.615 13.498.745 17.546.745 51.723 0 34.178-.13 38.226-.745 51.723-.57 12.48-2.655 19.257-4.408 23.768-2.322 5.974-5.096 10.239-9.575 14.718-4.479 4.479-8.743 7.253-14.717 9.574-4.511 1.753-11.289 3.839-23.769 4.408-13.495.616-17.543.746-51.722.746-34.18 0-38.228-.13-51.723-.746-12.48-.57-19.257-2.655-23.768-4.408-5.974-2.321-10.239-5.095-14.718-9.574-4.479-4.48-7.253-8.744-9.574-14.718-1.753-4.51-3.839-11.288-4.408-23.768-.616-13.497-.746-17.545-.746-51.723 0-34.177.13-38.225.746-51.722.57-12.48 2.655-19.258 4.408-23.769 2.321-5.974 5.095-10.238 9.574-14.717 4.48-4.48 8.744-7.253 14.718-9.575 4.51-1.753 11.288-3.838 23.768-4.408 13.497-.615 17.545-.745 51.723-.745M128 0C93.237 0 88.878.147 75.226.77c-13.625.622-22.93 2.786-31.071 5.95-8.418 3.271-15.556 7.648-22.672 14.764C14.367 28.6 9.991 35.738 6.72 44.155 3.555 52.297 1.392 61.602.77 75.226.147 88.878 0 93.237 0 128c0 34.763.147 39.122.77 52.774.622 13.625 2.785 22.93 5.95 31.071 3.27 8.417 7.647 15.556 14.763 22.672 7.116 7.116 14.254 11.492 22.672 14.763 8.142 3.165 17.446 5.328 31.07 5.95 13.653.623 18.012.77 52.775.77s39.122-.147 52.774-.77c13.624-.622 22.929-2.785 31.07-5.95 8.418-3.27 15.556-7.647 22.672-14.763 7.116-7.116 11.493-14.254 14.764-22.672 3.164-8.142 5.328-17.446 5.95-31.07.623-13.653.77-18.012.77-52.775s-.147-39.122-.77-52.774c-.622-13.624-2.786-22.929-5.95-31.07-3.271-8.418-7.648-15.556-14.764-22.672C227.4 14.368 220.262 9.99 211.845 6.72c-8.142-3.164-17.447-5.328-31.071-5.95C167.122.147 162.763 0 128 0Zm0 62.27C91.698 62.27 62.27 91.7 62.27 128c0 36.302 29.428 65.73 65.73 65.73 36.301 0 65.73-29.428 65.73-65.73 0-36.301-29.429-65.73-65.73-65.73Zm0 108.397c-23.564 0-42.667-19.103-42.667-42.667S104.436 85.333 128 85.333s42.667 19.103 42.667 42.667-19.103 42.667-42.667 42.667Zm83.686-110.994c0 8.484-6.876 15.36-15.36 15.36-8.483 0-15.36-6.876-15.36-15.36 0-8.483 6.877-15.36 15.36-15.36 8.484 0 15.36 6.877 15.36 15.36Z" />
    </symbol>
  </defs>
</svg>
