<svg xmlns="http://www.w3.org/2000/svg">
  <defs>
    <symbol id='scroll-up' viewBox='0 0 24 24'>
      <path d="M6 15l6 -6l6 6" />
    </symbol>
    <symbol id='scroll-down' viewBox='0 0 24 24'>
      <path d="M6 9l6 6l6 -6" />
    </symbol>
    <symbol id='menu' viewBox='0 0 24 24'>
      <path d="M7 6h10" />
      <path d="M4 12h16" />
      <path d="M7 12h13" />
      <path d="M7 18h10" />
    </symbol>
    <symbol id='menu-expand' viewBox='0 0 24 24'>
      <path d="M4 11l8 3l8 -3" />
    </symbol>
    <symbol id='menu-collapse' viewBox='0 0 24 24'>
      <path d="M4 13l8 -3l8 3" />
    </symbol>
    <symbol id='menu-close' viewBox='0 0 24 24'>
      <path d="M18 6l-12 12" />
      <path d="M6 6l12 12" />
    </symbol>
    <symbol id='location' viewBox='0 0 24 24'>
      <path d="M9 11a3 3 0 1 0 6 0a3 3 0 0 0 -6 0" />
      <path d="M17.657 16.657l-4.243 4.243a2 2 0 0 1 -2.827 0l-4.244 -4.243a8 8 0 1 1 11.314 0z" />
    </symbol>
    <symbol id='website' viewBox='0 0 24 24'>
      <path d="M19.5 7a9 9 0 0 0 -7.5 -4a8.991 8.991 0 0 0 -7.484 4" />
      <path d="M11.5 3a16.989 16.989 0 0 0 -1.826 4" />
      <path d="M12.5 3a16.989 16.989 0 0 1 1.828 4" />
      <path d="M19.5 17a9 9 0 0 1 -7.5 4a8.991 8.991 0 0 1 -7.484 -4" />
      <path d="M11.5 21a16.989 16.989 0 0 1 -1.826 -4" />
      <path d="M12.5 21a16.989 16.989 0 0 0 1.828 -4" />
      <path d="M2 10l1 4l1.5 -4l1.5 4l1 -4" />
      <path d="M17 10l1 4l1.5 -4l1.5 4l1 -4" />
      <path d="M9.5 10l1 4l1.5 -4l1.5 4l1 -4" />
    </symbol>
  </defs>
</svg>
